<mxfile host="app.diagrams.net" modified="2024-07-12T23:04:39.753Z" agent="Mozilla/5.0 (X11; Linux x86_64) AppleWebKit/537.36 (KHTML, like Gecko) Chrome/126.0.0.0 Safari/537.36" version="24.6.4" etag="W3vTqr221RuumImAmG0M" type="github">
  <diagram name="Page-1" id="hgh61pcMqSlINX2_QWBn">
    <mxGraphModel>
      <root>
        <mxCell id="0" />
        <mxCell id="1" parent="0" />
      </root>
    </mxGraphModel>
  </diagram>
</mxfile>
